<mxfile host="app.diagrams.net" modified="2022-12-18T13:48:35.409Z" agent="5.0 (Windows NT 10.0; Win64; x64) AppleWebKit/537.36 (KHTML, like Gecko) Chrome/108.0.0.0 Safari/537.36" etag="SyngKAh7vqjxvOqPD19n" version="20.7.3" type="github">
  <diagram id="prtHgNgQTEPvFCAcTncT" name="Page-1">
    <mxGraphModel dx="1412" dy="515" grid="1" gridSize="10" guides="1" tooltips="1" connect="1" arrows="1" fold="1" page="1" pageScale="1" pageWidth="827" pageHeight="1169" math="0" shadow="0">
      <root>
        <mxCell id="0" />
        <mxCell id="1" parent="0" />
        <mxCell id="dNxyNK7c78bLwvsdeMH5-11" value="&lt;span style=&quot;font-family: &amp;quot;Microsoft YaHei&amp;quot;; font-size: 7pt; color: rgb(25, 25, 25); background-color: transparent;&quot;&gt;&lt;font style=&quot;vertical-align: inherit;&quot;&gt;&lt;font style=&quot;vertical-align: inherit;&quot;&gt;准备阶段&lt;/font&gt;&lt;/font&gt;&lt;/span&gt;" style="swimlane;html=1;startSize=20;horizontal=1;containerType=tree;glass=0;fillColor=#FF9999;strokeColor=#b85450;" parent="1" vertex="1">
          <mxGeometry x="20" y="40" width="480" height="360" as="geometry">
            <mxRectangle x="40" y="80" width="90" height="30" as="alternateBounds" />
          </mxGeometry>
        </mxCell>
        <mxCell id="OTApJZgQJJiU-7IRqIAa-1" value="&lt;span style=&quot;font-family: &amp;quot;Microsoft YaHei&amp;quot;; font-size: 6.66667pt; color: rgb(25, 25, 25); background-color: transparent;&quot;&gt;启动&lt;/span&gt;" style="swimlane;html=1;startSize=20;horizontal=1;containerType=tree;glass=0;gradientColor=none;fillColor=#FFCCCC;" parent="dNxyNK7c78bLwvsdeMH5-11" vertex="1">
          <mxGeometry y="20" width="120" height="340" as="geometry">
            <mxRectangle x="40" y="80" width="90" height="30" as="alternateBounds" />
          </mxGeometry>
        </mxCell>
        <mxCell id="OTApJZgQJJiU-7IRqIAa-8" value="&lt;font face=&quot;Microsoft YaHei&quot; color=&quot;#191919&quot;&gt;&lt;span style=&quot;font-size: 8.88889px;&quot;&gt;&lt;font style=&quot;vertical-align: inherit;&quot;&gt;&lt;font style=&quot;vertical-align: inherit;&quot;&gt;&lt;font style=&quot;vertical-align: inherit;&quot;&gt;&lt;font style=&quot;vertical-align: inherit;&quot;&gt;&lt;font style=&quot;vertical-align: inherit;&quot;&gt;&lt;font style=&quot;vertical-align: inherit;&quot;&gt;明确清单接口人&lt;/font&gt;&lt;/font&gt;&lt;/font&gt;&lt;/font&gt;&lt;/font&gt;&lt;/font&gt;&lt;/span&gt;&lt;/font&gt;" style="rounded=0;whiteSpace=wrap;html=1;" parent="OTApJZgQJJiU-7IRqIAa-1" vertex="1">
          <mxGeometry x="15" y="224" width="90" height="50" as="geometry" />
        </mxCell>
        <mxCell id="OTApJZgQJJiU-7IRqIAa-11" value="&lt;span style=&quot;font-family:&#39;Microsoft YaHei&#39;; font-size:6.66667pt; color:#191919;&quot;&gt;&lt;font style=&quot;vertical-align: inherit;&quot;&gt;&lt;font style=&quot;vertical-align: inherit;&quot;&gt;&lt;font style=&quot;vertical-align: inherit;&quot;&gt;&lt;font style=&quot;vertical-align: inherit;&quot;&gt;&lt;font style=&quot;vertical-align: inherit;&quot;&gt;&lt;font style=&quot;vertical-align: inherit;&quot;&gt;&lt;font style=&quot;vertical-align: inherit;&quot;&gt;&lt;font style=&quot;vertical-align: inherit;&quot;&gt;启动会/项目群&lt;/font&gt;&lt;/font&gt;&lt;/font&gt;&lt;/font&gt;&lt;/font&gt;&lt;/font&gt;&lt;/font&gt;&lt;/font&gt;&lt;/span&gt;" style="rounded=0;whiteSpace=wrap;html=1;" parent="OTApJZgQJJiU-7IRqIAa-1" vertex="1">
          <mxGeometry x="15" y="164" width="90" height="50" as="geometry" />
        </mxCell>
        <mxCell id="iH_fENymZqT4NKZlddTt-9" value="&lt;font face=&quot;Microsoft YaHei&quot; color=&quot;#191919&quot;&gt;&lt;span style=&quot;font-size: 8.88889px;&quot;&gt;&lt;font style=&quot;vertical-align: inherit;&quot;&gt;&lt;font style=&quot;vertical-align: inherit;&quot;&gt;&lt;font style=&quot;vertical-align: inherit;&quot;&gt;&lt;font style=&quot;vertical-align: inherit;&quot;&gt;&lt;font style=&quot;vertical-align: inherit;&quot;&gt;&lt;font style=&quot;vertical-align: inherit;&quot;&gt;&lt;font style=&quot;vertical-align: inherit;&quot;&gt;&lt;font style=&quot;vertical-align: inherit;&quot;&gt;&lt;font style=&quot;vertical-align: inherit;&quot;&gt;&lt;font style=&quot;vertical-align: inherit;&quot;&gt;指定接口人&lt;/font&gt;&lt;/font&gt;&lt;/font&gt;&lt;/font&gt;&lt;/font&gt;&lt;/font&gt;&lt;/font&gt;&lt;/font&gt;&lt;/font&gt;&lt;/font&gt;&lt;/span&gt;&lt;/font&gt;" style="rounded=0;whiteSpace=wrap;html=1;" vertex="1" parent="OTApJZgQJJiU-7IRqIAa-1">
          <mxGeometry x="15" y="44" width="90" height="50" as="geometry" />
        </mxCell>
        <mxCell id="iH_fENymZqT4NKZlddTt-10" value="&lt;font face=&quot;Microsoft YaHei&quot; color=&quot;#191919&quot;&gt;&lt;span style=&quot;font-size: 8.88889px;&quot;&gt;&lt;font style=&quot;vertical-align: inherit;&quot;&gt;&lt;font style=&quot;vertical-align: inherit;&quot;&gt;&lt;font style=&quot;vertical-align: inherit;&quot;&gt;&lt;font style=&quot;vertical-align: inherit;&quot;&gt;&lt;font style=&quot;vertical-align: inherit;&quot;&gt;&lt;font style=&quot;vertical-align: inherit;&quot;&gt;&lt;font style=&quot;vertical-align: inherit;&quot;&gt;&lt;font style=&quot;vertical-align: inherit;&quot;&gt;&lt;font style=&quot;vertical-align: inherit;&quot;&gt;&lt;font style=&quot;vertical-align: inherit;&quot;&gt;明晰任务清单&lt;/font&gt;&lt;/font&gt;&lt;/font&gt;&lt;/font&gt;&lt;/font&gt;&lt;/font&gt;&lt;/font&gt;&lt;/font&gt;&lt;/font&gt;&lt;/font&gt;&lt;/span&gt;&lt;/font&gt;" style="rounded=0;whiteSpace=wrap;html=1;" vertex="1" parent="OTApJZgQJJiU-7IRqIAa-1">
          <mxGeometry x="15" y="104" width="90" height="50" as="geometry" />
        </mxCell>
        <mxCell id="iH_fENymZqT4NKZlddTt-6" value="&lt;div class=&quot;lake-content&quot;&gt;&lt;p style=&quot;margin: 0; padding: 0; min-height: 24px&quot; class=&quot;ne-p&quot; id=&quot;uf201b41a&quot;&gt;&lt;em&gt;&lt;span style=&quot;color: #E8323C&quot; class=&quot;ne-text&quot;&gt;&lt;font style=&quot;vertical-align: inherit;&quot;&gt;&lt;font style=&quot;vertical-align: inherit;&quot;&gt;&lt;font style=&quot;vertical-align: inherit;&quot;&gt;&lt;font style=&quot;vertical-align: inherit;&quot;&gt;&lt;font style=&quot;vertical-align: inherit;&quot;&gt;&lt;font style=&quot;vertical-align: inherit;&quot;&gt;&lt;font style=&quot;vertical-align: inherit;&quot;&gt;&lt;font style=&quot;vertical-align: inherit;&quot;&gt;&lt;font style=&quot;vertical-align: inherit;&quot;&gt;&lt;font style=&quot;vertical-align: inherit;&quot;&gt;&lt;font style=&quot;vertical-align: inherit;&quot;&gt;&lt;font style=&quot;vertical-align: inherit;&quot;&gt;&lt;font style=&quot;vertical-align: inherit;&quot;&gt;&lt;font style=&quot;vertical-align: inherit;&quot;&gt;&lt;font style=&quot;vertical-align: inherit;&quot;&gt;&lt;font style=&quot;vertical-align: inherit;&quot;&gt;※ &lt;/font&gt;&lt;/font&gt;&lt;/font&gt;&lt;/font&gt;&lt;/font&gt;&lt;/font&gt;&lt;/font&gt;&lt;/font&gt;&lt;/font&gt;&lt;/font&gt;&lt;/font&gt;&lt;/font&gt;&lt;/font&gt;&lt;/font&gt;&lt;/font&gt;&lt;/font&gt;&lt;/span&gt;&lt;/em&gt;&lt;em style=&quot;background-color: initial;&quot;&gt;&lt;span style=&quot;color: #E8323C&quot; class=&quot;ne-text&quot;&gt;&lt;font style=&quot;vertical-align: inherit;&quot;&gt;&lt;font style=&quot;vertical-align: inherit;&quot;&gt;&lt;font style=&quot;vertical-align: inherit;&quot;&gt;&lt;font style=&quot;vertical-align: inherit;&quot;&gt;2-3周前启动&lt;/font&gt;&lt;/font&gt;&lt;/font&gt;&lt;/font&gt;&lt;/span&gt;&lt;/em&gt;&lt;/p&gt;&lt;/div&gt;" style="text;whiteSpace=wrap;html=1;fontStyle=1" vertex="1" parent="OTApJZgQJJiU-7IRqIAa-1">
          <mxGeometry x="10" y="20" width="100" height="20" as="geometry" />
        </mxCell>
        <mxCell id="iH_fENymZqT4NKZlddTt-33" value="&lt;font face=&quot;Microsoft YaHei&quot; color=&quot;#191919&quot;&gt;&lt;span style=&quot;font-size: 8.88889px;&quot;&gt;&lt;font style=&quot;vertical-align: inherit;&quot;&gt;&lt;font style=&quot;vertical-align: inherit;&quot;&gt;&lt;font style=&quot;vertical-align: inherit;&quot;&gt;&lt;font style=&quot;vertical-align: inherit;&quot;&gt;&lt;font style=&quot;vertical-align: inherit;&quot;&gt;&lt;font style=&quot;vertical-align: inherit;&quot;&gt;确认日报机制&lt;/font&gt;&lt;/font&gt;&lt;/font&gt;&lt;/font&gt;&lt;/font&gt;&lt;/font&gt;&lt;/span&gt;&lt;/font&gt;" style="rounded=0;whiteSpace=wrap;html=1;" vertex="1" parent="OTApJZgQJJiU-7IRqIAa-1">
          <mxGeometry x="15" y="285" width="90" height="50" as="geometry" />
        </mxCell>
        <mxCell id="OTApJZgQJJiU-7IRqIAa-2" value="&lt;span style=&quot;font-family: &amp;quot;Microsoft YaHei&amp;quot;; font-size: 6.66667pt; color: rgb(25, 25, 25);&quot;&gt;&lt;font style=&quot;vertical-align: inherit;&quot;&gt;&lt;font style=&quot;vertical-align: inherit;&quot;&gt;材料准备&lt;/font&gt;&lt;/font&gt;&lt;/span&gt;" style="swimlane;html=1;startSize=20;horizontal=1;containerType=tree;glass=0;fillColor=#FFCCCC;" parent="dNxyNK7c78bLwvsdeMH5-11" vertex="1">
          <mxGeometry x="120" y="20" width="120" height="340" as="geometry">
            <mxRectangle x="40" y="80" width="90" height="30" as="alternateBounds" />
          </mxGeometry>
        </mxCell>
        <mxCell id="OTApJZgQJJiU-7IRqIAa-19" value="&lt;font face=&quot;Microsoft YaHei&quot; color=&quot;#191919&quot;&gt;&lt;span style=&quot;font-size: 8.88889px;&quot;&gt;检查材料准备&lt;/span&gt;&lt;/font&gt;" style="rounded=0;whiteSpace=wrap;html=1;" parent="OTApJZgQJJiU-7IRqIAa-2" vertex="1">
          <mxGeometry x="15" y="70" width="90" height="50" as="geometry" />
        </mxCell>
        <mxCell id="OTApJZgQJJiU-7IRqIAa-18" value="&lt;span style=&quot;font-family:&#39;Microsoft YaHei&#39;; font-size:6.66667pt; color:#191919;&quot;&gt;&lt;font style=&quot;vertical-align: inherit;&quot;&gt;&lt;font style=&quot;vertical-align: inherit;&quot;&gt;访谈人准备&lt;/font&gt;&lt;/font&gt;&lt;/span&gt;" style="rounded=0;whiteSpace=wrap;html=1;" parent="OTApJZgQJJiU-7IRqIAa-2" vertex="1">
          <mxGeometry x="15" y="130" width="90" height="50" as="geometry" />
        </mxCell>
        <mxCell id="OTApJZgQJJiU-7IRqIAa-15" value="&lt;span style=&quot;font-family:&#39;Microsoft YaHei&#39;; font-size:6.66667pt; color:#191919;&quot;&gt;&lt;font style=&quot;vertical-align: inherit;&quot;&gt;&lt;font style=&quot;vertical-align: inherit;&quot;&gt;系统实测准备&lt;/font&gt;&lt;/font&gt;&lt;/span&gt;" style="rounded=0;whiteSpace=wrap;html=1;" parent="OTApJZgQJJiU-7IRqIAa-2" vertex="1">
          <mxGeometry x="15" y="190" width="90" height="50" as="geometry" />
        </mxCell>
        <mxCell id="iH_fENymZqT4NKZlddTt-2" value="&lt;div class=&quot;lake-content&quot;&gt;&lt;p style=&quot;margin: 0; padding: 0; min-height: 24px&quot; class=&quot;ne-p&quot; id=&quot;uf201b41a&quot;&gt;&lt;em&gt;&lt;span style=&quot;color: #E8323C&quot; class=&quot;ne-text&quot;&gt;&lt;font style=&quot;vertical-align: inherit;&quot;&gt;&lt;font style=&quot;vertical-align: inherit;&quot;&gt;&lt;font style=&quot;vertical-align: inherit;&quot;&gt;&lt;font style=&quot;vertical-align: inherit;&quot;&gt;&lt;font style=&quot;vertical-align: inherit;&quot;&gt;&lt;font style=&quot;vertical-align: inherit;&quot;&gt;&lt;font style=&quot;vertical-align: inherit;&quot;&gt;&lt;font style=&quot;vertical-align: inherit;&quot;&gt;&lt;font style=&quot;vertical-align: inherit;&quot;&gt;&lt;font style=&quot;vertical-align: inherit;&quot;&gt;&lt;font style=&quot;vertical-align: inherit;&quot;&gt;&lt;font style=&quot;vertical-align: inherit;&quot;&gt;&lt;font style=&quot;vertical-align: inherit;&quot;&gt;&lt;font style=&quot;vertical-align: inherit;&quot;&gt;※ -1周准备完备&lt;/font&gt;&lt;/font&gt;&lt;/font&gt;&lt;/font&gt;&lt;/font&gt;&lt;/font&gt;&lt;/font&gt;&lt;/font&gt;&lt;/font&gt;&lt;/font&gt;&lt;/font&gt;&lt;/font&gt;&lt;/font&gt;&lt;/font&gt;&lt;/span&gt;&lt;/em&gt;&lt;/p&gt;&lt;/div&gt;" style="text;whiteSpace=wrap;html=1;fontStyle=1" vertex="1" parent="OTApJZgQJJiU-7IRqIAa-2">
          <mxGeometry x="10" y="20" width="100" height="20" as="geometry" />
        </mxCell>
        <mxCell id="OTApJZgQJJiU-7IRqIAa-24" value="&lt;font face=&quot;Microsoft YaHei&quot; color=&quot;#191919&quot;&gt;&lt;span style=&quot;font-size: 8.88889px;&quot;&gt;材料汇总对焦&lt;/span&gt;&lt;/font&gt;" style="rounded=0;whiteSpace=wrap;html=1;" parent="OTApJZgQJJiU-7IRqIAa-2" vertex="1">
          <mxGeometry x="15" y="250" width="90" height="50" as="geometry" />
        </mxCell>
        <mxCell id="OTApJZgQJJiU-7IRqIAa-4" value="&lt;span style=&quot;font-family: &amp;quot;Microsoft YaHei&amp;quot;; font-size: 6.66667pt; color: rgb(25, 25, 25);&quot;&gt;材料保障&lt;/span&gt;" style="swimlane;html=1;startSize=20;horizontal=1;containerType=tree;glass=0;fillColor=#FFCCCC;" parent="dNxyNK7c78bLwvsdeMH5-11" vertex="1">
          <mxGeometry x="360" y="20" width="120" height="340" as="geometry">
            <mxRectangle x="40" y="80" width="90" height="30" as="alternateBounds" />
          </mxGeometry>
        </mxCell>
        <mxCell id="OTApJZgQJJiU-7IRqIAa-26" value="&lt;font face=&quot;Microsoft YaHei&quot; color=&quot;#191919&quot;&gt;&lt;span style=&quot;font-size: 8.88889px;&quot;&gt;&lt;font style=&quot;vertical-align: inherit;&quot;&gt;&lt;font style=&quot;vertical-align: inherit;&quot;&gt;迎检材料披露&lt;/font&gt;&lt;/font&gt;&lt;/span&gt;&lt;/font&gt;" style="rounded=0;whiteSpace=wrap;html=1;" parent="OTApJZgQJJiU-7IRqIAa-4" vertex="1">
          <mxGeometry x="15" y="130" width="90" height="50" as="geometry" />
        </mxCell>
        <mxCell id="OTApJZgQJJiU-7IRqIAa-27" value="&lt;span style=&quot;font-family:&#39;Microsoft YaHei&#39;; font-size:6.66667pt; color:#191919;&quot;&gt;&lt;font style=&quot;vertical-align: inherit;&quot;&gt;&lt;font style=&quot;vertical-align: inherit;&quot;&gt;&lt;font style=&quot;vertical-align: inherit;&quot;&gt;&lt;font style=&quot;vertical-align: inherit;&quot;&gt;保密协议议署&lt;/font&gt;&lt;/font&gt;&lt;/font&gt;&lt;/font&gt;&lt;/span&gt;" style="rounded=0;whiteSpace=wrap;html=1;" parent="OTApJZgQJJiU-7IRqIAa-4" vertex="1">
          <mxGeometry x="15" y="190" width="90" height="50" as="geometry" />
        </mxCell>
        <mxCell id="iH_fENymZqT4NKZlddTt-12" value="&lt;div class=&quot;lake-content&quot;&gt;&lt;p style=&quot;margin: 0; padding: 0; min-height: 24px&quot; class=&quot;ne-p&quot; id=&quot;uf201b41a&quot;&gt;&lt;em&gt;&lt;span style=&quot;color: #E8323C&quot; class=&quot;ne-text&quot;&gt;&lt;font style=&quot;vertical-align: inherit;&quot;&gt;&lt;font style=&quot;vertical-align: inherit;&quot;&gt;&lt;font style=&quot;vertical-align: inherit;&quot;&gt;&lt;font style=&quot;vertical-align: inherit;&quot;&gt;&lt;font style=&quot;vertical-align: inherit;&quot;&gt;&lt;font style=&quot;vertical-align: inherit;&quot;&gt;&lt;font style=&quot;vertical-align: inherit;&quot;&gt;&lt;font style=&quot;vertical-align: inherit;&quot;&gt;&lt;font style=&quot;vertical-align: inherit;&quot;&gt;&lt;font style=&quot;vertical-align: inherit;&quot;&gt;&lt;font style=&quot;vertical-align: inherit;&quot;&gt;&lt;font style=&quot;vertical-align: inherit;&quot;&gt;&lt;font style=&quot;vertical-align: inherit;&quot;&gt;&lt;font style=&quot;vertical-align: inherit;&quot;&gt;&lt;font style=&quot;vertical-align: inherit;&quot;&gt;&lt;font style=&quot;vertical-align: inherit;&quot;&gt;&lt;font style=&quot;vertical-align: inherit;&quot;&gt;&lt;font style=&quot;vertical-align: inherit;&quot;&gt;&lt;font style=&quot;vertical-align: inherit;&quot;&gt;&lt;font style=&quot;vertical-align: inherit;&quot;&gt;&lt;font style=&quot;vertical-align: inherit;&quot;&gt;&lt;font style=&quot;vertical-align: inherit;&quot;&gt;※ -2天保障完成&lt;/font&gt;&lt;/font&gt;&lt;/font&gt;&lt;/font&gt;&lt;/font&gt;&lt;/font&gt;&lt;/font&gt;&lt;/font&gt;&lt;/font&gt;&lt;/font&gt;&lt;/font&gt;&lt;/font&gt;&lt;/font&gt;&lt;/font&gt;&lt;/font&gt;&lt;/font&gt;&lt;/font&gt;&lt;/font&gt;&lt;/font&gt;&lt;/font&gt;&lt;/font&gt;&lt;/font&gt;&lt;/span&gt;&lt;/em&gt;&lt;/p&gt;&lt;/div&gt;" style="text;whiteSpace=wrap;html=1;fontStyle=1" vertex="1" parent="OTApJZgQJJiU-7IRqIAa-4">
          <mxGeometry x="10" y="20" width="100" height="20" as="geometry" />
        </mxCell>
        <mxCell id="OTApJZgQJJiU-7IRqIAa-3" value="&lt;span style=&quot;font-family: &amp;quot;Microsoft YaHei&amp;quot;; font-size: 6.66667pt; color: rgb(25, 25, 25);&quot;&gt;&lt;font style=&quot;vertical-align: inherit;&quot;&gt;&lt;font style=&quot;vertical-align: inherit;&quot;&gt;培训与预演&lt;/font&gt;&lt;/font&gt;&lt;/span&gt;" style="swimlane;html=1;startSize=20;horizontal=1;containerType=tree;glass=0;fillColor=#FFCCCC;" parent="dNxyNK7c78bLwvsdeMH5-11" vertex="1">
          <mxGeometry x="240" y="20" width="120" height="340" as="geometry">
            <mxRectangle x="240" y="20" width="90" height="30" as="alternateBounds" />
          </mxGeometry>
        </mxCell>
        <mxCell id="OTApJZgQJJiU-7IRqIAa-25" value="&lt;span style=&quot;font-family:&#39;Microsoft YaHei&#39;; font-size:6.66667pt; color:#191919;&quot;&gt;迎检培训&lt;/span&gt;" style="rounded=0;whiteSpace=wrap;html=1;" parent="OTApJZgQJJiU-7IRqIAa-3" vertex="1">
          <mxGeometry x="10" y="130" width="90" height="50" as="geometry" />
        </mxCell>
        <mxCell id="OTApJZgQJJiU-7IRqIAa-22" value="&lt;font face=&quot;Microsoft YaHei&quot; color=&quot;#191919&quot;&gt;&lt;span style=&quot;font-size: 8.88889px;&quot;&gt;迎检预演&lt;/span&gt;&lt;/font&gt;" style="rounded=0;whiteSpace=wrap;html=1;" parent="OTApJZgQJJiU-7IRqIAa-3" vertex="1">
          <mxGeometry x="10" y="190" width="90" height="50" as="geometry" />
        </mxCell>
        <mxCell id="iH_fENymZqT4NKZlddTt-11" value="&lt;div class=&quot;lake-content&quot;&gt;&lt;p style=&quot;margin: 0; padding: 0; min-height: 24px&quot; class=&quot;ne-p&quot; id=&quot;uf201b41a&quot;&gt;&lt;em&gt;&lt;span style=&quot;color: #E8323C&quot; class=&quot;ne-text&quot;&gt;&lt;font style=&quot;vertical-align: inherit;&quot;&gt;&lt;font style=&quot;vertical-align: inherit;&quot;&gt;&lt;font style=&quot;vertical-align: inherit;&quot;&gt;&lt;font style=&quot;vertical-align: inherit;&quot;&gt;&lt;font style=&quot;vertical-align: inherit;&quot;&gt;&lt;font style=&quot;vertical-align: inherit;&quot;&gt;&lt;font style=&quot;vertical-align: inherit;&quot;&gt;&lt;font style=&quot;vertical-align: inherit;&quot;&gt;&lt;font style=&quot;vertical-align: inherit;&quot;&gt;&lt;font style=&quot;vertical-align: inherit;&quot;&gt;&lt;font style=&quot;vertical-align: inherit;&quot;&gt;&lt;font style=&quot;vertical-align: inherit;&quot;&gt;&lt;font style=&quot;vertical-align: inherit;&quot;&gt;&lt;font style=&quot;vertical-align: inherit;&quot;&gt;&lt;font style=&quot;vertical-align: inherit;&quot;&gt;&lt;font style=&quot;vertical-align: inherit;&quot;&gt;&lt;font style=&quot;vertical-align: inherit;&quot;&gt;&lt;font style=&quot;vertical-align: inherit;&quot;&gt;&lt;font style=&quot;vertical-align: inherit;&quot;&gt;&lt;font style=&quot;vertical-align: inherit;&quot;&gt;&lt;font style=&quot;vertical-align: inherit;&quot;&gt;&lt;font style=&quot;vertical-align: inherit;&quot;&gt;&lt;font style=&quot;vertical-align: inherit;&quot;&gt;&lt;font style=&quot;vertical-align: inherit;&quot;&gt;&lt;font style=&quot;vertical-align: inherit;&quot;&gt;&lt;font style=&quot;vertical-align: inherit;&quot;&gt;&lt;font style=&quot;vertical-align: inherit;&quot;&gt;&lt;font style=&quot;vertical-align: inherit;&quot;&gt;※ -3天&lt;/font&gt;&lt;/font&gt;&lt;/font&gt;&lt;/font&gt;&lt;/font&gt;&lt;/font&gt;&lt;/font&gt;&lt;/font&gt;&lt;/font&gt;&lt;/font&gt;&lt;/font&gt;&lt;/font&gt;&lt;/font&gt;&lt;/font&gt;&lt;/font&gt;&lt;/font&gt;&lt;/font&gt;&lt;/font&gt;&lt;/font&gt;&lt;/font&gt;&lt;/font&gt;&lt;/font&gt;&lt;/font&gt;&lt;/font&gt;&lt;/font&gt;&lt;/font&gt;&lt;/font&gt;&lt;/font&gt;&lt;/span&gt;&lt;/em&gt;&lt;em style=&quot;background-color: initial;&quot;&gt;&lt;span style=&quot;color: #E8323C&quot; class=&quot;ne-text&quot;&gt;&lt;font style=&quot;vertical-align: inherit;&quot;&gt;&lt;font style=&quot;vertical-align: inherit;&quot;&gt;&lt;font style=&quot;vertical-align: inherit;&quot;&gt;&lt;font style=&quot;vertical-align: inherit;&quot;&gt;&lt;font style=&quot;vertical-align: inherit;&quot;&gt;&lt;font style=&quot;vertical-align: inherit;&quot;&gt;培训与预演问题优化&lt;/font&gt;&lt;/font&gt;&lt;/font&gt;&lt;/font&gt;&lt;/font&gt;&lt;/font&gt;&lt;/span&gt;&lt;/em&gt;&lt;/p&gt;&lt;/div&gt;" style="text;whiteSpace=wrap;html=1;fontStyle=1" vertex="1" parent="OTApJZgQJJiU-7IRqIAa-3">
          <mxGeometry x="10" y="20" width="100" height="20" as="geometry" />
        </mxCell>
        <mxCell id="OTApJZgQJJiU-7IRqIAa-29" value="&lt;span style=&quot;font-family: &amp;quot;Microsoft YaHei&amp;quot;; font-size: 7pt; color: rgb(25, 25, 25); background-color: transparent;&quot;&gt;现场检查&lt;/span&gt;" style="swimlane;html=1;startSize=20;horizontal=1;containerType=tree;glass=0;fillColor=#99FFFF;gradientColor=#7ea6e0;strokeColor=#6c8ebf;" parent="1" vertex="1">
          <mxGeometry x="500" y="40" width="480" height="360" as="geometry">
            <mxRectangle x="40" y="80" width="90" height="30" as="alternateBounds" />
          </mxGeometry>
        </mxCell>
        <mxCell id="OTApJZgQJJiU-7IRqIAa-30" value="&lt;span style=&quot;font-family: &amp;quot;Microsoft YaHei&amp;quot;; font-size: 6.66667pt; color: rgb(25, 25, 25); background-color: transparent;&quot;&gt;开场&lt;/span&gt;" style="swimlane;html=1;startSize=20;horizontal=1;containerType=tree;glass=0;fillColor=#CCFFFF;" parent="OTApJZgQJJiU-7IRqIAa-29" vertex="1">
          <mxGeometry y="20" width="120" height="340" as="geometry">
            <mxRectangle x="40" y="80" width="90" height="30" as="alternateBounds" />
          </mxGeometry>
        </mxCell>
        <mxCell id="OTApJZgQJJiU-7IRqIAa-33" value="&lt;span style=&quot;font-family:&#39;Microsoft YaHei&#39;; font-size:6.66667pt; color:#191919;&quot;&gt;材料简单说明&lt;/span&gt;" style="rounded=0;whiteSpace=wrap;html=1;" parent="OTApJZgQJJiU-7IRqIAa-30" vertex="1">
          <mxGeometry x="15" y="190" width="90" height="50" as="geometry" />
        </mxCell>
        <mxCell id="OTApJZgQJJiU-7IRqIAa-36" value="&lt;span style=&quot;font-family:&#39;Microsoft YaHei&#39;; font-size:6.66667pt; color:#191919;&quot;&gt;业务简单介绍&lt;/span&gt;" style="rounded=0;whiteSpace=wrap;html=1;" parent="OTApJZgQJJiU-7IRqIAa-30" vertex="1">
          <mxGeometry x="15" y="130" width="90" height="50" as="geometry" />
        </mxCell>
        <mxCell id="OTApJZgQJJiU-7IRqIAa-38" value="&lt;font face=&quot;Microsoft YaHei&quot; color=&quot;#191919&quot;&gt;&lt;span style=&quot;font-size: 8.88889px;&quot;&gt;检查&lt;/span&gt;&lt;/font&gt;" style="swimlane;html=1;startSize=20;horizontal=1;containerType=tree;glass=0;fillColor=#CCFFFF;" parent="OTApJZgQJJiU-7IRqIAa-29" vertex="1">
          <mxGeometry x="120" y="20" width="120" height="340" as="geometry">
            <mxRectangle x="40" y="80" width="90" height="30" as="alternateBounds" />
          </mxGeometry>
        </mxCell>
        <mxCell id="iH_fENymZqT4NKZlddTt-26" value="&lt;font face=&quot;Microsoft YaHei&quot; color=&quot;#191919&quot;&gt;&lt;span style=&quot;font-size: 8.88889px;&quot;&gt;系统实测&lt;/span&gt;&lt;/font&gt;" style="rounded=0;whiteSpace=wrap;html=1;" vertex="1" parent="OTApJZgQJJiU-7IRqIAa-38">
          <mxGeometry x="15" y="155" width="90" height="50" as="geometry" />
        </mxCell>
        <mxCell id="iH_fENymZqT4NKZlddTt-29" value="&lt;font face=&quot;Microsoft YaHei&quot; color=&quot;#191919&quot;&gt;&lt;span style=&quot;font-size: 8.88889px;&quot;&gt;材料核查&lt;/span&gt;&lt;/font&gt;" style="rounded=0;whiteSpace=wrap;html=1;" vertex="1" parent="OTApJZgQJJiU-7IRqIAa-38">
          <mxGeometry x="15" y="40" width="90" height="45" as="geometry" />
        </mxCell>
        <mxCell id="iH_fENymZqT4NKZlddTt-30" value="&lt;font face=&quot;Microsoft YaHei&quot; color=&quot;#191919&quot;&gt;&lt;span style=&quot;font-size: 8.88889px;&quot;&gt;问询&lt;/span&gt;&lt;/font&gt;" style="rounded=0;whiteSpace=wrap;html=1;" vertex="1" parent="OTApJZgQJJiU-7IRqIAa-38">
          <mxGeometry x="15" y="95" width="90" height="50" as="geometry" />
        </mxCell>
        <mxCell id="iH_fENymZqT4NKZlddTt-38" value="&lt;font face=&quot;Microsoft YaHei&quot; color=&quot;#191919&quot;&gt;&lt;span style=&quot;font-size: 8.88889px;&quot;&gt;过程记录&lt;/span&gt;&lt;/font&gt;" style="rounded=0;whiteSpace=wrap;html=1;" vertex="1" parent="OTApJZgQJJiU-7IRqIAa-38">
          <mxGeometry x="15" y="220" width="90" height="50" as="geometry" />
        </mxCell>
        <mxCell id="iH_fENymZqT4NKZlddTt-39" value="&lt;font face=&quot;Microsoft YaHei&quot; color=&quot;#191919&quot;&gt;&lt;span style=&quot;font-size: 8.88889px;&quot;&gt;现场总结&lt;/span&gt;&lt;/font&gt;" style="rounded=0;whiteSpace=wrap;html=1;" vertex="1" parent="OTApJZgQJJiU-7IRqIAa-38">
          <mxGeometry x="15" y="280" width="90" height="50" as="geometry" />
        </mxCell>
        <mxCell id="OTApJZgQJJiU-7IRqIAa-43" value="巡检结果总结" style="swimlane;html=1;startSize=20;horizontal=1;containerType=tree;glass=0;fillColor=#CCFFFF;" parent="OTApJZgQJJiU-7IRqIAa-29" vertex="1">
          <mxGeometry x="360" y="20" width="120" height="340" as="geometry">
            <mxRectangle x="40" y="80" width="90" height="30" as="alternateBounds" />
          </mxGeometry>
        </mxCell>
        <mxCell id="OTApJZgQJJiU-7IRqIAa-48" value="&lt;div class=&quot;lake-content&quot;&gt;&lt;span style=&quot;border-color: var(--border-color);&quot; class=&quot;ne-text&quot;&gt;疑义风险&lt;/span&gt;&lt;span style=&quot;border-color: var(--border-color); background-color: initial;&quot;&gt;确认&lt;/span&gt;&lt;br&gt;&lt;/div&gt;" style="rounded=0;whiteSpace=wrap;html=1;" parent="OTApJZgQJJiU-7IRqIAa-43" vertex="1">
          <mxGeometry x="15" y="130" width="90" height="50" as="geometry" />
        </mxCell>
        <mxCell id="OTApJZgQJJiU-7IRqIAa-47" value="核查结果确认" style="rounded=0;whiteSpace=wrap;html=1;" parent="OTApJZgQJJiU-7IRqIAa-43" vertex="1">
          <mxGeometry x="15" y="190" width="90" height="50" as="geometry" />
        </mxCell>
        <mxCell id="OTApJZgQJJiU-7IRqIAa-46" value="&lt;span style=&quot;color: rgb(25, 25, 25); font-family: &amp;quot;Microsoft YaHei&amp;quot;; font-size: 8.88889px;&quot;&gt;内部复盘&lt;/span&gt;" style="swimlane;html=1;startSize=20;horizontal=1;containerType=tree;glass=0;fillColor=#CCFFFF;" parent="OTApJZgQJJiU-7IRqIAa-29" vertex="1">
          <mxGeometry x="240" y="20" width="120" height="340" as="geometry">
            <mxRectangle x="40" y="80" width="90" height="30" as="alternateBounds" />
          </mxGeometry>
        </mxCell>
        <mxCell id="OTApJZgQJJiU-7IRqIAa-44" value="&lt;font face=&quot;Microsoft YaHei&quot; color=&quot;#191919&quot;&gt;&lt;span style=&quot;font-size: 8.88889px;&quot;&gt;过程复盘&lt;/span&gt;&lt;/font&gt;" style="rounded=0;whiteSpace=wrap;html=1;" parent="OTApJZgQJJiU-7IRqIAa-46" vertex="1">
          <mxGeometry x="15" y="130" width="90" height="50" as="geometry" />
        </mxCell>
        <mxCell id="OTApJZgQJJiU-7IRqIAa-45" value="&lt;font face=&quot;Microsoft YaHei&quot; color=&quot;#191919&quot;&gt;&lt;span style=&quot;font-size: 8.88889px;&quot;&gt;风险复盘&lt;br&gt;&lt;/span&gt;&lt;/font&gt;" style="rounded=0;whiteSpace=wrap;html=1;" parent="OTApJZgQJJiU-7IRqIAa-46" vertex="1">
          <mxGeometry x="15" y="190" width="90" height="50" as="geometry" />
        </mxCell>
        <mxCell id="OTApJZgQJJiU-7IRqIAa-56" value="&lt;span style=&quot;font-family: &amp;quot;Microsoft YaHei&amp;quot;; font-size: 7pt; color: rgb(25, 25, 25); background-color: transparent;&quot;&gt;检查后&lt;/span&gt;" style="swimlane;html=1;startSize=20;horizontal=1;containerType=tree;glass=0;fillColor=#FFFF99;strokeColor=#d6b656;gradientColor=#ffd966;" parent="1" vertex="1">
          <mxGeometry x="980" y="40" width="250" height="360" as="geometry">
            <mxRectangle x="40" y="80" width="90" height="30" as="alternateBounds" />
          </mxGeometry>
        </mxCell>
        <mxCell id="OTApJZgQJJiU-7IRqIAa-57" value="&lt;span style=&quot;font-family: &amp;quot;Microsoft YaHei&amp;quot;; font-size: 6.66667pt; color: rgb(25, 25, 25); background-color: transparent;&quot;&gt;整改与验收&lt;/span&gt;" style="swimlane;html=1;startSize=20;horizontal=1;containerType=tree;glass=0;fillColor=#FFFFCC;" parent="OTApJZgQJJiU-7IRqIAa-56" vertex="1">
          <mxGeometry y="20" width="250" height="340" as="geometry">
            <mxRectangle x="40" y="80" width="90" height="30" as="alternateBounds" />
          </mxGeometry>
        </mxCell>
        <mxCell id="iH_fENymZqT4NKZlddTt-48" value="&lt;div class=&quot;lake-content&quot;&gt;&lt;div class=&quot;lake-content&quot;&gt;&lt;span class=&quot;ne-text&quot;&gt;整改项确认&lt;/span&gt;&lt;/div&gt;&lt;/div&gt;" style="rounded=0;whiteSpace=wrap;html=1;" vertex="1" parent="OTApJZgQJJiU-7IRqIAa-57">
          <mxGeometry x="15" y="130" width="90" height="50" as="geometry" />
        </mxCell>
        <mxCell id="iH_fENymZqT4NKZlddTt-49" value="&lt;div class=&quot;lake-content&quot;&gt;&lt;span class=&quot;ne-text&quot;&gt;整改落地&lt;/span&gt;&lt;/div&gt;" style="rounded=0;whiteSpace=wrap;html=1;" vertex="1" parent="OTApJZgQJJiU-7IRqIAa-57">
          <mxGeometry x="15" y="190" width="90" height="50" as="geometry" />
        </mxCell>
        <mxCell id="iH_fENymZqT4NKZlddTt-50" value="&lt;span style=&quot;font-family: &amp;quot;Microsoft YaHei&amp;quot;; font-size: 7pt; color: rgb(25, 25, 25); background-color: transparent;&quot;&gt;检查后&lt;/span&gt;" style="swimlane;html=1;startSize=20;horizontal=1;containerType=tree;glass=0;fillColor=#FFFF99;strokeColor=#d6b656;gradientColor=#ffd966;" vertex="1" parent="OTApJZgQJJiU-7IRqIAa-57">
          <mxGeometry y="-20" width="250" height="360" as="geometry">
            <mxRectangle x="40" y="80" width="90" height="30" as="alternateBounds" />
          </mxGeometry>
        </mxCell>
        <mxCell id="iH_fENymZqT4NKZlddTt-51" value="&lt;span style=&quot;font-family: &amp;quot;Microsoft YaHei&amp;quot;; font-size: 6.66667pt; color: rgb(25, 25, 25); background-color: transparent;&quot;&gt;整改与验收&lt;/span&gt;" style="swimlane;html=1;startSize=20;horizontal=1;containerType=tree;glass=0;fillColor=#FFFFCC;" vertex="1" parent="iH_fENymZqT4NKZlddTt-50">
          <mxGeometry y="20" width="250" height="340" as="geometry">
            <mxRectangle x="40" y="80" width="90" height="30" as="alternateBounds" />
          </mxGeometry>
        </mxCell>
        <mxCell id="iH_fENymZqT4NKZlddTt-52" value="&lt;div class=&quot;lake-content&quot;&gt;&lt;div class=&quot;lake-content&quot;&gt;&lt;span class=&quot;ne-text&quot;&gt;整改项确认&lt;/span&gt;&lt;/div&gt;&lt;/div&gt;" style="rounded=0;whiteSpace=wrap;html=1;" vertex="1" parent="iH_fENymZqT4NKZlddTt-51">
          <mxGeometry x="15" y="130" width="90" height="50" as="geometry" />
        </mxCell>
        <mxCell id="iH_fENymZqT4NKZlddTt-53" value="&lt;div class=&quot;lake-content&quot;&gt;&lt;span class=&quot;ne-text&quot;&gt;整改落地&lt;/span&gt;&lt;/div&gt;" style="rounded=0;whiteSpace=wrap;html=1;" vertex="1" parent="iH_fENymZqT4NKZlddTt-51">
          <mxGeometry x="15" y="190" width="90" height="50" as="geometry" />
        </mxCell>
        <mxCell id="iH_fENymZqT4NKZlddTt-55" value="&lt;span style=&quot;color: rgb(25, 25, 25); font-family: &amp;quot;Microsoft YaHei&amp;quot;; font-size: 8.88889px;&quot;&gt;整改与存档&lt;/span&gt;" style="swimlane;html=1;startSize=20;horizontal=1;containerType=tree;glass=0;fillColor=#FFFF99;strokeColor=#d6b656;gradientColor=#ffd966;" vertex="1" parent="iH_fENymZqT4NKZlddTt-51">
          <mxGeometry y="-20" width="250" height="360" as="geometry">
            <mxRectangle x="40" y="80" width="90" height="30" as="alternateBounds" />
          </mxGeometry>
        </mxCell>
        <mxCell id="iH_fENymZqT4NKZlddTt-56" value="&lt;span style=&quot;font-family: &amp;quot;Microsoft YaHei&amp;quot;; font-size: 6.66667pt; color: rgb(25, 25, 25); background-color: transparent;&quot;&gt;整改与验收&lt;/span&gt;" style="swimlane;html=1;startSize=20;horizontal=1;containerType=tree;glass=0;fillColor=#FFFFCC;" vertex="1" parent="iH_fENymZqT4NKZlddTt-55">
          <mxGeometry y="20" width="120" height="340" as="geometry">
            <mxRectangle x="40" y="80" width="90" height="30" as="alternateBounds" />
          </mxGeometry>
        </mxCell>
        <mxCell id="iH_fENymZqT4NKZlddTt-57" value="&lt;div class=&quot;lake-content&quot;&gt;&lt;div class=&quot;lake-content&quot;&gt;&lt;span class=&quot;ne-text&quot;&gt;整改项确认&lt;/span&gt;&lt;/div&gt;&lt;/div&gt;" style="rounded=0;whiteSpace=wrap;html=1;" vertex="1" parent="iH_fENymZqT4NKZlddTt-56">
          <mxGeometry x="15" y="130" width="90" height="50" as="geometry" />
        </mxCell>
        <mxCell id="iH_fENymZqT4NKZlddTt-58" value="&lt;div class=&quot;lake-content&quot;&gt;&lt;span class=&quot;ne-text&quot;&gt;整改落地&lt;/span&gt;&lt;/div&gt;" style="rounded=0;whiteSpace=wrap;html=1;" vertex="1" parent="iH_fENymZqT4NKZlddTt-56">
          <mxGeometry x="15" y="190" width="90" height="50" as="geometry" />
        </mxCell>
        <mxCell id="iH_fENymZqT4NKZlddTt-59" value="&lt;span style=&quot;font-family: &amp;quot;Microsoft YaHei&amp;quot;; font-size: 6.66667pt; color: rgb(25, 25, 25); background-color: transparent;&quot;&gt;复查与&lt;/span&gt;&lt;span style=&quot;color: rgb(25, 25, 25); font-family: &amp;quot;Microsoft YaHei&amp;quot;; font-size: 8.88889px;&quot;&gt;存档&lt;/span&gt;&lt;span style=&quot;font-family: &amp;quot;Microsoft YaHei&amp;quot;; font-size: 6.66667pt; color: rgb(25, 25, 25); background-color: transparent;&quot;&gt;&lt;br&gt;&lt;/span&gt;" style="swimlane;html=1;startSize=20;horizontal=1;containerType=tree;glass=0;fillColor=#FFFFCC;" vertex="1" parent="iH_fENymZqT4NKZlddTt-55">
          <mxGeometry x="120" y="20" width="130" height="340" as="geometry">
            <mxRectangle x="40" y="80" width="90" height="30" as="alternateBounds" />
          </mxGeometry>
        </mxCell>
        <mxCell id="iH_fENymZqT4NKZlddTt-54" value="&lt;span style=&quot;font-family: &amp;quot;Microsoft YaHei&amp;quot;; font-size: 6.66667pt; color: rgb(25, 25, 25); background-color: transparent;&quot;&gt;复查与&lt;/span&gt;&lt;span style=&quot;color: rgb(25, 25, 25); font-family: &amp;quot;Microsoft YaHei&amp;quot;; font-size: 8.88889px;&quot;&gt;存档&lt;/span&gt;&lt;span style=&quot;font-family: &amp;quot;Microsoft YaHei&amp;quot;; font-size: 6.66667pt; color: rgb(25, 25, 25); background-color: transparent;&quot;&gt;&lt;br&gt;&lt;/span&gt;" style="swimlane;html=1;startSize=20;horizontal=1;containerType=tree;glass=0;fillColor=#FFFFCC;" vertex="1" parent="iH_fENymZqT4NKZlddTt-50">
          <mxGeometry x="120" y="20" width="130" height="340" as="geometry">
            <mxRectangle x="40" y="80" width="90" height="30" as="alternateBounds" />
          </mxGeometry>
        </mxCell>
        <mxCell id="OTApJZgQJJiU-7IRqIAa-72" value="&lt;span style=&quot;font-family: &amp;quot;Microsoft YaHei&amp;quot;; font-size: 6.66667pt; color: rgb(25, 25, 25); background-color: transparent;&quot;&gt;复查与&lt;/span&gt;&lt;span style=&quot;color: rgb(25, 25, 25); font-family: &amp;quot;Microsoft YaHei&amp;quot;; font-size: 8.88889px;&quot;&gt;存档&lt;/span&gt;&lt;span style=&quot;font-family: &amp;quot;Microsoft YaHei&amp;quot;; font-size: 6.66667pt; color: rgb(25, 25, 25); background-color: transparent;&quot;&gt;&lt;br&gt;&lt;/span&gt;" style="swimlane;html=1;startSize=20;horizontal=1;containerType=tree;glass=0;fillColor=#FFFFCC;" parent="OTApJZgQJJiU-7IRqIAa-56" vertex="1">
          <mxGeometry x="120" y="20" width="130" height="340" as="geometry">
            <mxRectangle x="40" y="80" width="90" height="30" as="alternateBounds" />
          </mxGeometry>
        </mxCell>
        <mxCell id="iH_fENymZqT4NKZlddTt-60" value="&lt;div class=&quot;lake-content&quot;&gt;&lt;div class=&quot;lake-content&quot;&gt;材料与整改复查&lt;/div&gt;&lt;/div&gt;" style="rounded=0;whiteSpace=wrap;html=1;" vertex="1" parent="OTApJZgQJJiU-7IRqIAa-72">
          <mxGeometry x="20" y="130" width="90" height="50" as="geometry" />
        </mxCell>
        <mxCell id="iH_fENymZqT4NKZlddTt-61" value="&lt;div class=&quot;lake-content&quot;&gt;材料存档&lt;/div&gt;" style="rounded=0;whiteSpace=wrap;html=1;" vertex="1" parent="OTApJZgQJJiU-7IRqIAa-72">
          <mxGeometry x="20" y="190" width="90" height="50" as="geometry" />
        </mxCell>
      </root>
    </mxGraphModel>
  </diagram>
</mxfile>
